<svg
    width="40"
    height="40"
    viewBox="0 0 31 25"
    fill="none"
    xmlns="http://www.w3.org/2000/svg"
>
    <path
        d="M25.1667 14.187H20.3333C17.6637 14.187 15.5 16.3507 15.5 19.0203V19.8258C15.5 19.8258 18.0174 20.6314 22.75 20.6314C27.4826 20.6314 30 19.8258 30 19.8258V19.0203C30 16.3507 27.8363 14.187 25.1667 14.187Z"
        stroke="#28CC9D"
        stroke-width="1.5"
        stroke-miterlimit="10"
        stroke-linecap="round"
        stroke-linejoin="round"
    />
    <path
        d="M18.7227 6.9369C18.7227 4.71276 20.5263 2.90912 22.7504 2.90912C24.9746 2.90912 26.7782 4.71276 26.7782 6.9369C26.7782 9.16104 24.9746 11.7702 22.7504 11.7702C20.5263 11.7702 18.7227 9.16104 18.7227 6.9369Z"
        stroke="#28CC9D"
        stroke-width="1.5"
        stroke-miterlimit="10"
        stroke-linecap="round"
        stroke-linejoin="round"
    />
    <path
        d="M13.2231 15.8512H7.11157C3.73595 15.8512 1 18.5871 1 21.9628V22.9814C1 22.9814 4.18311 24 10.1674 24C16.1516 24 19.3347 22.9814 19.3347 22.9814V21.9628C19.3347 18.5871 16.5988 15.8512 13.2231 15.8512Z"
        fill="#0B1715"
        stroke="white"
        stroke-width="1.5"
        stroke-miterlimit="10"
        stroke-linecap="round"
        stroke-linejoin="round"
    />
    <path
        d="M5.07422 6.68386C5.07422 3.87152 7.35485 1.59088 10.1672 1.59088C12.9795 1.59088 15.2602 3.87152 15.2602 6.68386C15.2602 9.4962 12.9795 12.7954 10.1672 12.7954C7.35485 12.7954 5.07422 9.4962 5.07422 6.68386Z"
        fill="#0B1715"
        stroke="white"
        stroke-width="1.5"
        stroke-miterlimit="10"
        stroke-linecap="round"
        stroke-linejoin="round"
    />
</svg>