<svg
            width="40"
            height="40"
            viewBox="0 0 23 23"
            fill="none"
            xmlns="http://www.w3.org/2000/svg"
          >
            <path
              d="M19.8335 21.9166H3.16683C2.6143 21.9166 2.08439 21.6972 1.69369 21.3065C1.30299 20.9158 1.0835 20.3858 1.0835 19.8333V3.16665C1.0835 2.61411 1.30299 2.08421 1.69369 1.69351C2.08439 1.30281 2.6143 1.08331 3.16683 1.08331H19.8335C20.386 1.08331 20.9159 1.30281 21.3066 1.69351C21.6973 2.08421 21.9168 2.61411 21.9168 3.16665V19.8333C21.9168 20.3858 21.6973 20.9158 21.3066 21.3065C20.9159 21.6972 20.386 21.9166 19.8335 21.9166Z"
              stroke="white"
              stroke-width="1.5"
              stroke-miterlimit="10"
              stroke-linecap="round"
              stroke-linejoin="round"
            />
            <path
              d="M7 12.6667L9.25 15L16 8"
              stroke="#28CC9D"
              stroke-width="1.5"
              stroke-miterlimit="10"
              stroke-linecap="round"
              stroke-linejoin="round"
            />
          </svg>