<svg id="SvgjsSvg1068" width="564.5309807462502" height="130.12257547645913" xmlns="http://www.w3.org/2000/svg" version="1.1" xmlns:xlink="http://www.w3.org/1999/xlink" xmlns:svgjs="http://svgjs.com/svgjs"><defs id="SvgjsDefs1069"><pattern patternUnits="userSpaceOnUse" id="pattern_mark_0" width="300" height="300"><text x="150" y="100" fill="rgba(229,229,229,0.8)" font-size="18" transform="rotate(-45, 150, 150)" style="dominant-baseline: middle; text-anchor: middle;"></text></pattern><pattern patternUnits="userSpaceOnUse" id="pattern_mark_1" width="300" height="300"><text x="150" y="200" fill="rgba(229,229,229,0.8)" font-size="18" transform="rotate(-45, 150, 150)" style="dominant-baseline: middle; text-anchor: middle;"></text></pattern></defs><rect id="svgbackgroundid" width="564.5309807462502" height="130.12257547645913" fill="transparent"></rect><rect id="SvgjsRect1071" width="564.5309807462502" height="130.12257547645913" fill="url(#pattern_mark_0)"></rect><rect id="SvgjsRect1072" width="564.5309807462502" height="130.12257547645913" fill="url(#pattern_mark_1)"></rect><g id="SvgjsG1073" transform="matrix(0.9396926207859084,-0.3420201433256686,0.3420201433256686,0.9396926207859084,25.000001207994195,39.45000219785736)"><path id="SvgjsPath1074" d="M 0 4Q 0 0 4 0L 38.24897825953739 0Q 42.24897825953739 0 42.24897825953739 4L 42.24897825953739 62.34468310773437Q 42.24897825953739 66.34468310773437 38.24897825953739 66.34468310773437L 4 66.34468310773437Q 0 66.34468310773437 0 62.34468310773437Z" stroke="rgba(166,166,166,1)" stroke-width="1.5" fill-opacity="1" fill="#fdc63d"></path><g id="SvgjsG1075"><text id="SvgjsText1076" font-family="微软雅黑" text-anchor="middle" font-size="13px" width="23px" fill="#323232" font-weight="400" align="middle" lineHeight="125%" anchor="middle" family="微软雅黑" size="13px" weight="400" font-style="" opacity="1" y="22.547341553867184" transform="rotate(0)"></text></g></g><g id="SvgjsG1077"><path id="SvgjsPath1078" d="M36.884958992892564 69.91080476368404L75.17647316794518 55.97383337898248" stroke="#a6a6a6" stroke-width="1.5" fill="none"></path></g><g id="SvgjsG1079"><path id="SvgjsPath1080" d="M79.46604710018619 69.24793196632584L41.85567844411298 82.93698665691511" stroke="#a6a6a6" stroke-width="1.5" fill="none"></path></g><g id="SvgjsG1081"><path id="SvgjsPath1082" d="M69.72656767729859 42.48892188715041L41.186404334993654 52.97580627525883" stroke="#a6a6a6" stroke-width="1.5" fill="none"></path></g><g id="SvgjsG1083" transform="matrix(0.9659258262890683,0.25881904510252046,-0.25881904510252046,0.9659258262890683,67.5820102727986,29.914647155007174)"><path id="SvgjsPath1084" d="M 0 4Q 0 0 4 0L 38.24897825953739 0Q 42.24897825953739 0 42.24897825953739 4L 42.24897825953739 62.34468310773437Q 42.24897825953739 66.34468310773437 38.24897825953739 66.34468310773437L 4 66.34468310773437Q 0 66.34468310773437 0 62.34468310773437Z" stroke="rgba(224,224,224,1)" stroke-width="1.5" fill-opacity="1" fill="#2a58ff"></path><g id="SvgjsG1085"><text id="SvgjsText1086" font-family="微软雅黑" text-anchor="middle" font-size="13px" width="23px" fill="#323232" font-weight="400" align="middle" lineHeight="125%" anchor="middle" family="微软雅黑" size="13px" weight="400" font-style="" opacity="1" y="22.547341553867184" transform="rotate(0)"></text></g></g><g id="SvgjsG1087"><path id="SvgjsPath1088" d="M59.846000482155944 61.68360784684654L99.20649097793483 72.23021948888339" stroke="#e0e0e0" stroke-width="1.5" fill="none"></path></g><g id="SvgjsG1089"><path id="SvgjsPath1090" d="M95.10659407015794 85.56412301231848L56.446264492630235 75.20511892289892" stroke="#e0e0e0" stroke-width="1.5" fill="none"></path></g><g id="SvgjsG1091"><path id="SvgjsPath1092" d="M102.47760054997156 58.05515374077186L72.97396507982552 50.11843089010654" stroke="#e0e0e0" stroke-width="1.5" fill="none"></path></g><g id="SvgjsG1093" transform="translate(94.53098074625024,45.45154020851072)"><path id="SvgjsPath1094" d="M 0 0L 444.81482611762146 0L 444.81482611762146 56.34207053589682L 0 56.34207053589682Z" stroke="none" fill="none"></path><g id="SvgjsG1095"><text id="SvgjsText1096" font-family="苍耳与墨" text-anchor="middle" font-size="50px" width="445px" fill="#323232" font-weight="700" align="middle" lineHeight="125%" anchor="middle" family="苍耳与墨" size="50px" weight="700" font-style="" opacity="1" y="-14.578964732051588" transform="rotate(0)"><tspan id="SvgjsTspan1097" dy="62.5" x="222.5"><tspan id="SvgjsTspan1098" style="">简历信息抽取系统</tspan></tspan></text></g></g></svg>